<?xml version="1.0" encoding="UTF-8"?>
<svg id="Ebene_1" data-name="Ebene 1" xmlns="http://www.w3.org/2000/svg" viewBox="0 0 1128 689.62">
  <polygon points="1087.3 338.4 1005.89 338.4 965.19 408.9 1005.89 479.4 1087.3 479.4 1128 408.9 1087.3 338.4 1087.3 338.4"/>
  <path d="m1128,70.5L1078.65,0h-126.9l-39.48,56.4h-47.94L824.85,0h-345.45c-132.68,0-252.76,53.91-339.56,141h685.01l39.48-56.4h47.94l39.48,56.4h126.9l49.35-70.5h0Z"/>
  <path d="m1015.2,239.7l-49.35-70.5h-70.5l-39.48,56.4h-47.94l-39.48-56.4H113.93c-35.27,41.52-63.6,89.11-83.18,141h737.7l39.48-56.4h47.94l39.48,56.4h70.5l49.35-70.5h0Z"/>
  <path d="m902.4,408.9l-49.35-70.5h-126.9l-39.48,56.4h-47.94l-39.48-56.4H21.09C7.39,382.98,0,430.33,0,479.4h0,599.25l39.48-56.4h47.94l39.48,56.4h126.9l49.35-70.5h0Z"/>
  <path d="m55.05,583.9c-.96,1.06-2.81,1.59-5.53,1.59h-21.88v-53.66h21.88c2.72,0,4.57.53,5.53,1.59.96,1.06,1.44,3.13,1.44,6.2v38.08c0,3.08-.48,5.15-1.44,6.2h0Zm0,79.91c-.96,1.06-2.81,1.59-5.53,1.59h-21.88v-55.68h21.88c2.72,0,4.57.53,5.53,1.59.96,1.06,1.44,3.13,1.44,6.2v40.1c0,3.08-.48,5.15-1.44,6.2h0ZM0,689.62h57.69c17.47,0,26.2-9.52,26.2-28.56v-42.69c0-11.15-3.37-18.07-10.1-20.77,6.73-2.69,10.1-10.1,10.1-22.21v-39.23c0-19.04-8.74-28.56-26.2-28.56H0v182.02h0Zm166.16,0h27.64v-182.02h-27.64v182.02h0Zm206.02,0l-31.97-182.02h-37.26l-30.53,182.02h27.65l5.29-37.79h33.17l5.77,37.79h27.89Zm-50.72-150l13.22,87.12h-25.72l12.5-87.12h0Zm174.8,123.03c-.96,1.06-2.73,1.59-5.29,1.59h-9.14c-2.73,0-4.57-.53-5.53-1.59-.96-1.05-1.44-3.12-1.44-6.2v-20.48h-27.64v25.1c0,19.04,8.73,28.56,26.2,28.56h25.96c17.47,0,26.2-9.52,26.2-28.56v-47.6c0-18.84-8.41-28.27-25.24-28.27h-18.99c-2.73,0-4.57-.53-5.53-1.59-.96-1.05-1.44-3.12-1.44-6.2v-36.64c0-3.07.48-5.14,1.44-6.2.96-1.06,2.8-1.59,5.53-1.59h9.13c2.56,0,4.33.53,5.29,1.59.96,1.06,1.44,3.13,1.44,6.2v20.77h27.89v-25.39c0-19.04-8.65-28.56-25.96-28.56h-26.44c-17.31,0-25.96,9.52-25.96,28.56v44.71c0,19.23,8.25,28.85,24.76,28.85h19.47c2.56,0,4.33.53,5.29,1.59.96,1.06,1.44,3.13,1.44,6.2v38.94c0,3.08-.48,5.15-1.44,6.2h0Zm137.73-155.05h-27.65v182.02h68.03v-25.39h-40.39v-156.64h0Zm156.38,123.46l33.42-123.46h-28.13l-19.47,93.46-20.67-93.46h-28.12l35.34,124.33v57.69h27.64v-58.56h0Zm107.9-123.46v25.38h49.04l-51.68,131.25v25.39h78.85v-25.39h-50.48l51.68-131.25v-25.38h-77.41Zm183.57,101.54h37.27v-25.67h-37.27v-50.48h44.24v-25.38h-72.12v182.02h74.04v-25.39h-46.16v-55.1h0Z"/>
</svg>